<mxfile host="app.diagrams.net" modified="2021-03-14T05:25:19.785Z" agent="5.0 (Windows NT 10.0; Win64; x64) AppleWebKit/537.36 (KHTML, like Gecko) Chrome/89.0.4389.82 Safari/537.36" etag="mlMpo-tNOYnevLaUJj2x" version="14.4.8" type="github">
  <diagram id="qzwo3udyixpiXsEspLf8" name="Page-1">
    <mxGraphModel dx="1422" dy="794" grid="1" gridSize="10" guides="1" tooltips="1" connect="1" arrows="1" fold="1" page="1" pageScale="1" pageWidth="850" pageHeight="1100" math="0" shadow="0">
      <root>
        <mxCell id="0" />
        <mxCell id="1" parent="0" />
        <mxCell id="K7vsucgxCah06EgGDOY--1" value="" style="ellipse;whiteSpace=wrap;html=1;dashed=1;fillColor=#dae8fc;strokeColor=#6c8ebf;" vertex="1" parent="1">
          <mxGeometry x="320" y="70" width="210" height="180" as="geometry" />
        </mxCell>
        <mxCell id="K7vsucgxCah06EgGDOY--2" value="Producer Domain" style="text;html=1;strokeColor=#82b366;fillColor=#d5e8d4;align=center;verticalAlign=middle;whiteSpace=wrap;rounded=0;dashed=1;" vertex="1" parent="1">
          <mxGeometry x="135" y="80" width="40" height="20" as="geometry" />
        </mxCell>
        <mxCell id="K7vsucgxCah06EgGDOY--3" value="OrderProducer" style="rounded=1;whiteSpace=wrap;html=1;dashed=1;fillColor=#CCFF99;gradientDirection=north;gradientColor=#B3FF66;" vertex="1" parent="1">
          <mxGeometry x="95" y="140" width="120" height="60" as="geometry" />
        </mxCell>
        <mxCell id="K7vsucgxCah06EgGDOY--6" value="" style="ellipse;whiteSpace=wrap;html=1;dashed=1;fillColor=#d5e8d4;strokeColor=#82b366;" vertex="1" parent="1">
          <mxGeometry x="60" y="70" width="210" height="180" as="geometry" />
        </mxCell>
        <mxCell id="K7vsucgxCah06EgGDOY--7" value="Producer Domain" style="text;html=1;strokeColor=#82b366;fillColor=#d5e8d4;align=center;verticalAlign=middle;whiteSpace=wrap;rounded=0;dashed=1;fontStyle=1;horizontal=1;fontColor=#006600;" vertex="1" parent="1">
          <mxGeometry x="145" y="90" width="40" height="20" as="geometry" />
        </mxCell>
        <mxCell id="K7vsucgxCah06EgGDOY--8" value="OrderProducer" style="rounded=1;whiteSpace=wrap;html=1;dashed=1;fillColor=#CCFF99;gradientDirection=north;gradientColor=#B3FF66;" vertex="1" parent="1">
          <mxGeometry x="105" y="150" width="120" height="60" as="geometry" />
        </mxCell>
        <mxCell id="K7vsucgxCah06EgGDOY--10" value="OrderService&lt;br&gt;&amp;nbsp;Domain" style="text;html=1;strokeColor=#82b366;fillColor=#d5e8d4;align=center;verticalAlign=middle;whiteSpace=wrap;rounded=0;dashed=1;" vertex="1" parent="1">
          <mxGeometry x="405" y="90" width="40" height="20" as="geometry" />
        </mxCell>
        <mxCell id="K7vsucgxCah06EgGDOY--12" value="OrderProcessorService" style="rounded=1;whiteSpace=wrap;html=1;dashed=1;fontColor=#006600;fillColor=#99CCFF;gradientColor=#66B2FF;" vertex="1" parent="1">
          <mxGeometry x="350" y="150" width="150" height="60" as="geometry" />
        </mxCell>
        <mxCell id="K7vsucgxCah06EgGDOY--13" value="Producer Domain" style="text;html=1;strokeColor=#82b366;fillColor=#d5e8d4;align=center;verticalAlign=middle;whiteSpace=wrap;rounded=0;dashed=1;" vertex="1" parent="1">
          <mxGeometry x="655" y="80" width="40" height="20" as="geometry" />
        </mxCell>
        <mxCell id="K7vsucgxCah06EgGDOY--14" value="OrderProducer" style="rounded=1;whiteSpace=wrap;html=1;dashed=1;fillColor=#CCFF99;gradientDirection=north;gradientColor=#B3FF66;" vertex="1" parent="1">
          <mxGeometry x="615" y="140" width="120" height="60" as="geometry" />
        </mxCell>
        <mxCell id="K7vsucgxCah06EgGDOY--15" value="" style="ellipse;whiteSpace=wrap;html=1;dashed=1;fillColor=#e1d5e7;strokeColor=#9673a6;" vertex="1" parent="1">
          <mxGeometry x="580" y="70" width="210" height="180" as="geometry" />
        </mxCell>
        <mxCell id="K7vsucgxCah06EgGDOY--16" value="Consumer Domain" style="text;html=1;strokeColor=#82b366;fillColor=#d5e8d4;align=center;verticalAlign=middle;whiteSpace=wrap;rounded=0;dashed=1;fontStyle=1;horizontal=1;fontColor=#006600;" vertex="1" parent="1">
          <mxGeometry x="665" y="90" width="40" height="20" as="geometry" />
        </mxCell>
        <mxCell id="K7vsucgxCah06EgGDOY--17" value="Courier" style="rounded=1;whiteSpace=wrap;html=1;dashed=1;gradientDirection=north;fillColor=#CC99FF;gradientColor=#B266FF;" vertex="1" parent="1">
          <mxGeometry x="625" y="150" width="120" height="60" as="geometry" />
        </mxCell>
      </root>
    </mxGraphModel>
  </diagram>
</mxfile>
